<svg xmlns="http://www.w3.org/2000/svg" id="Ebene_1" viewBox="-296.6 442.5 300 114.2"><style>.st0{fill:#033B7B;} .st1{fill:#FBC22D;} .st2{enable-background:new ;} .st3{fill:#033368;} .st4{fill:#F7B225;}</style><g id="Startseite-Copy-4"><g id="Desktop-HD"><g id="Group-2"><g id="Group-3"><g id="Group"><path id="Fill-1" d="M-262.8 490.6s.3-3.6 1.2-9.6c.8-6.1 2.2-12.6 3.6-18.8 2.5-11.7 5.6-19.7 5.6-19.7s26.4 13.2 50.3 46.6c0 0-6.8-.9-18.8-1-8.8 0-19.2.3-27.7 1.1-6 .8-7 .8-14.2 1.4" class="st0"/><path id="Fill-2" d="M-296.6 499s9.5-3.3 15.4-4.7c5.3-1.3 18.9-3.5 18.9-3.5s-1.5 3.5-1.1 32.7c.1 8.3 2.5 33.2 2.5 33.2s-11.2-10.4-22-29.3c-7.8-13.9-13.7-28.4-13.7-28.4" class="st1"/></g><path d="M-249.3 499.4h3.1c3.8 0 5.9 2.2 5.9 6.2s-2.1 6.3-5.8 6.3h-3.2v-12.5zm3.1 11.2c2.9 0 4.4-1.8 4.4-5 0-3.1-1.4-4.9-4.4-4.9h-1.4v9.9h1.4zm15.4 1.3l-3-5.3h-2.2v5.3h-1.6v-12.5h3.9c2.5 0 4.4.9 4.4 3.5 0 1.9-1.1 3.1-2.8 3.5l3.2 5.4h-1.9zm-5.2-6.6h2.1c1.9 0 3-.8 3-2.4 0-1.6-1.1-2.2-3-2.2h-2.1v4.6zm10.1 4.4c.6 0 1.1.5 1.1 1.2s-.5 1.2-1.1 1.2c-.6 0-1.1-.5-1.1-1.2-.1-.7.5-1.2 1.1-1.2zm9.7-10.3h1.9l2.4 6.7.9 2.5h.1l.9-2.5 2.4-6.7h1.9v12.5h-1.5V505c0-1.1.1-2.6.2-3.7h-.1l-1 2.8-2.4 6.5h-.9l-2.4-6.5-1-2.8h-.1c.1 1.1.2 2.6.2 3.7v6.9h-1.5v-12.5zm13.8 0h7.2v1.3h-5.6v3.9h4.7v1.3h-4.7v4.5h5.8v1.3h-7.4v-12.3zm9.9 0h3.1c3.8 0 5.9 2.2 5.9 6.2s-2.1 6.3-5.8 6.3h-3.2v-12.5zm3 11.2c2.9 0 4.4-1.8 4.4-5 0-3.1-1.4-4.9-4.4-4.9h-1.4v9.9h1.4zm9.4-.9c.6 0 1.1.5 1.1 1.2s-.5 1.2-1.1 1.2c-.6 0-1.1-.5-1.1-1.2s.5-1.2 1.1-1.2zm6.6-10.3h3.1c3.8 0 5.9 2.2 5.9 6.2s-2.1 6.3-5.8 6.3h-3.2v-12.5zm3.1 11.2c2.9 0 4.4-1.8 4.4-5 0-3.1-1.4-4.9-4.4-4.9h-1.4v9.9h1.4zm8.6-11.2h7.2v1.3h-5.6v3.9h4.7v1.3h-4.7v4.5h5.8v1.3h-7.4v-12.3zm9.9 0h1.6l4.5 7.8 1.4 2.6h.1c-.1-1.3-.2-2.7-.2-4v-6.4h1.5v12.5h-1.6l-4.5-7.9-1.4-2.6h-.1c.1 1.3.2 2.6.2 3.9v6.5h-1.5v-12.4zm14.9 1.4h-3.8v-1.3h9.2v1.3h-3.8v11.1h-1.6v-11.1zm6.2 8.9c.6 0 1.1.5 1.1 1.2s-.5 1.2-1.1 1.2c-.6 0-1.1-.5-1.1-1.2-.1-.7.4-1.2 1.1-1.2zm16.6-1.2c.5.8 1.1 1.2 1.7 1.2 1 0 1.5-.5 1.5-2.2v-8h2.8v8.3c0 2.4-1.2 4.4-4 4.4-1.9 0-3.2-.7-4-2.2l2-1.5zm8.8-9h2.8v6.9c0 2.4.8 3.3 2.1 3.3 1.4 0 2.2-.8 2.2-3.3v-6.9h2.7v6.7c0 4.2-1.7 6-4.9 6s-4.9-1.8-4.9-6v-6.7zm12.7 0h3.5c3.8 0 6.2 1.9 6.2 6.1s-2.4 6.3-6.1 6.3h-3.7v-12.4zm3.4 10.1c2.1 0 3.5-1 3.5-4s-1.4-3.9-3.5-3.9h-.5v7.9h.5zm8.5-10.1h2.8v12.4h-2.8v-12.4zm8 2.4h-3.4v-2.4h9.6v2.4H-70v10h-2.8v-10zm8.2-2.4h2.8v4.8h4.3v-4.8h2.8v12.4h-2.8v-5.2h-4.3v5.2h-2.8v-12.4zm15.7 0h2.9l.9 5.8c.2 1.3.3 2.6.5 3.9h.1c.2-1.3.5-2.6.7-3.9l1.3-5.8h2.4l1.4 5.8c.2 1.3.5 2.6.7 3.9h.1c.2-1.3.3-2.6.5-3.9l.9-5.8h2.7l-2.2 12.4h-3.5l-1.2-5.6c-.2-1-.4-2-.5-2.9h-.1c-.2.9-.3 1.9-.5 2.9l-1.2 5.6h-3.5l-2.4-12.4zm16.9 0h7.8v2.4h-5v2.5h4.2v2.3h-4.2v2.9h5.2v2.4h-8v-12.5zm10.4 0h2.8v12.4h-2.8v-12.4zm6.5 8.9c.9.8 2 1.3 3 1.3 1.2 0 1.7-.5 1.7-1.2 0-.8-.7-1-1.8-1.5l-1.6-.7c-1.3-.5-2.5-1.6-2.5-3.4 0-2.1 1.8-3.7 4.4-3.7 1.4 0 2.9.6 4 1.6l-1.4 1.8c-.8-.6-1.6-1-2.6-1s-1.6.4-1.6 1.1c0 .8.8 1 1.9 1.5l1.6.6c1.5.6 2.5 1.6 2.5 3.4 0 2.1-1.7 3.8-4.7 3.8-1.6 0-3.3-.6-4.6-1.8l1.7-1.8zm10.2 0c.9.8 2 1.3 3 1.3 1.2 0 1.7-.5 1.7-1.2 0-.8-.7-1-1.8-1.5l-1.6-.7c-1.3-.5-2.5-1.6-2.5-3.4 0-2.1 1.8-3.7 4.4-3.7 1.4 0 2.9.6 4 1.6L1 502.7c-.8-.6-1.6-1-2.6-1s-1.6.4-1.6 1.1c0 .8.8 1 1.9 1.5l1.6.6c1.5.6 2.5 1.6 2.5 3.4 0 2.1-1.7 3.8-4.7 3.8-1.6 0-3.3-.6-4.6-1.8l1.6-1.9z" class="st2 st3"/><path d="M-249.5 526.6h4.5c2.7 0 4.9 1 4.9 4 0 2.9-2.2 4.2-4.9 4.2h-1.7v4.2h-2.8v-12.4zm4.4 5.9c1.5 0 2.3-.7 2.3-2s-.8-1.8-2.3-1.8h-1.5v3.7h1.5zm13.7 6.5l-2.4-4.5h-1.5v4.5h-2.8v-12.4h4.5c2.6 0 4.8.9 4.8 3.9 0 1.8-.9 3-2.2 3.6l2.8 5h-3.2zm-3.9-6.7h1.4c1.5 0 2.3-.6 2.3-1.8s-.8-1.6-2.3-1.6h-1.4v3.4zm15.3 3.7h-3.8l-.8 2.9h-2.9l3.9-12.4h3.3l3.9 12.4h-3l-.6-2.9zm-.6-2.2l-.3-1.1c-.3-1.2-.7-2.7-1-4h-.1c-.3 1.3-.6 2.8-1 4l-.3 1.1h2.7zm8.6-1.2l-3.2-6h3.1l1.1 2.3c.3.6.6 1.2.9 2h.1c.3-.8.5-1.4.8-2l1-2.3h3l-3.2 6.2 3.4 6.2h-3.1l-1.2-2.5c-.3-.6-.6-1.3-.9-2h-.1c-.3.8-.6 1.4-.9 2l-1.2 2.5h-3l3.4-6.4zm8.6-6h2.8V539h-2.8v-12.4zm6.4 8.9c.9.8 2 1.3 3 1.3 1.2 0 1.7-.5 1.7-1.2 0-.8-.7-1-1.8-1.5l-1.6-.7c-1.3-.5-2.5-1.6-2.5-3.4 0-2.1 1.8-3.7 4.4-3.7 1.4 0 2.9.6 4 1.6l-1.4 1.8c-.8-.6-1.6-1-2.6-1s-1.6.4-1.6 1.1c0 .8.8 1 1.9 1.5l1.6.6c1.5.6 2.5 1.6 2.5 3.4 0 2.1-1.7 3.8-4.7 3.8-1.6 0-3.3-.6-4.6-1.8l1.7-1.8zm13.8-8.9h7.8v2.4h-5v2.9h4.3v2.4h-4.3v4.8h-2.8v-12.5zm9.7 0h2.8v6.9c0 2.4.8 3.3 2.2 3.3 1.4 0 2.2-.8 2.2-3.3v-6.9h2.7v6.7c0 4.2-1.7 6-4.9 6s-4.9-1.8-4.9-6v-6.7zm1.8-2.3c0-.8.5-1.3 1.3-1.3s1.3.6 1.3 1.3-.5 1.3-1.3 1.3-1.3-.5-1.3-1.3zm3.7 0c0-.8.6-1.3 1.3-1.3.8 0 1.3.6 1.3 1.3s-.6 1.3-1.3 1.3c-.7 0-1.3-.5-1.3-1.3zm13.9 14.7l-2.4-4.5h-1.5v4.5h-2.8v-12.4h4.5c2.6 0 4.8.9 4.8 3.9 0 1.8-.9 3-2.2 3.6l2.8 5h-3.2zm-3.9-6.7h1.4c1.5 0 2.3-.6 2.3-1.8s-.8-1.6-2.3-1.6h-1.4v3.4zm12.2 5l5.5-8.3h-5v-2.4h8.4v1.7l-5.5 8.3h5.5v2.4h-9v-1.7zm17.6-1.3h-3.8l-.8 2.9h-2.9l3.9-12.4h3.3l3.9 12.4h-3l-.6-2.9zm-.6-2.2l-.3-1.1c-.3-1.2-.7-2.7-1-4h-.1c-.3 1.3-.6 2.8-1 4l-.3 1.1h2.7zm5.8-7.2h2.8v4.8h4.3v-4.8h2.8V539h-2.8v-5.2h-4.3v5.2h-2.8v-12.4zm12.8 0h2.9l3.2 6.2 1.2 2.7h.1c-.1-1.3-.4-3.1-.4-4.5v-4.4h2.7V539h-2.9l-3.2-6.2-1.2-2.7h-.1c.1 1.4.4 3 .4 4.5v4.4h-2.7v-12.4zm12.7 0h2.8v4.8h4.3v-4.8h2.8V539h-2.8v-5.2h-4.3v5.2h-2.8v-12.4zm12.7 0h7.8v2.4h-5v2.5h4.2v2.3H-82v2.9h5.2v2.4h-8v-12.5zm10.4 0h2.8V539h-2.8v-12.4zm5.8 0h2.8v10h4.9v2.4h-7.7v-12.4zm9.6 0h2.8v5.1h.1l3.7-5.1h3.1l-3.7 4.9 4.5 7.5h-3.1l-3-5.2-1.4 1.9v3.3h-3v-12.4zm11.2 0h2.8v6.9c0 2.4.8 3.3 2.1 3.3 1.4 0 2.2-.8 2.2-3.3v-6.9h2.7v6.7c0 4.2-1.7 6-4.9 6s-4.9-1.8-4.9-6v-6.7zm12.7 0h2.9l3.2 6.2 1.2 2.7h.1c-.1-1.3-.4-3.1-.4-4.5v-4.4h2.7V539h-2.9l-3.2-6.2-1.2-2.7h-.1c.1 1.4.4 3 .4 4.5v4.4h-2.7v-12.4zm12.6 0h3.5c3.8 0 6.2 1.9 6.2 6.1s-2.4 6.3-6.1 6.3h-3.7v-12.4zm3.3 10.1c2.1 0 3.5-1 3.5-4s-1.4-3.9-3.5-3.9h-.5v7.9h.5zm8.8-10.1h7.8v2.4h-5v2.5h4.2v2.3h-4.2v2.9h5.2v2.4h-8v-12.5z" class="st2 st4"/></g></g></g></g></svg>